<svg xmlns="http://www.w3.org/2000/svg" width="1200" height="800" viewBox="0 0 1200 800" role="img" aria-label="Entrenamiento de equipo">
  <defs>
    <linearGradient id="g3" x1="0%" y1="0%" x2="100%" y2="100%">
      <stop offset="0%" stop-color="#f093fb" />
      <stop offset="100%" stop-color="#f5576c" />
    </linearGradient>
  </defs>
  <rect width="1200" height="800" rx="48" fill="url(#g3)"/>
  <g fill="none" stroke="#fff1f2" stroke-width="12" stroke-linecap="round" stroke-linejoin="round" opacity="0.9">
    <path d="M320 520v-80c0-60 80-60 80 0v80M480 520v-120c0-60 80-60 80 0v120M640 520v-90c0-60 80-60 80 0v90M800 520v-140c0-60 80-60 80 0v140" />
    <path d="M300 540h620" />
  </g>
  <g fill="#fee2e2" opacity="0.9">
    <circle cx="340" cy="340" r="46" />
    <circle cx="500" cy="310" r="46" />
    <circle cx="660" cy="330" r="46" />
    <circle cx="820" cy="290" r="46" />
  </g>
  <text x="200" y="670" fill="#fff7ed" font-family="Inter, 'Helvetica Neue', Arial, sans-serif" font-weight="800" font-size="66">Coaching y liderazgo activo</text>
  <text x="200" y="720" fill="#ffe4e6" font-family="Inter, 'Helvetica Neue', Arial, sans-serif" font-weight="500" font-size="34">Sesiones breves para elevar comunicación y respuesta</text>
</svg>
