<svg xmlns="http://www.w3.org/2000/svg" width="128" height="128" viewBox="0 0 128 128" role="img" aria-label="Open compass personal mark">
  <title>Open Compass Mark</title>
  <defs>
    <linearGradient id="metal" x1="28" y1="16" x2="100" y2="112" gradientUnits="userSpaceOnUse">
      <stop offset="0" stop-color="#f8d66d" />
      <stop offset="0.48" stop-color="#74d2c9" />
      <stop offset="1" stop-color="#ef6d50" />
    </linearGradient>
    <linearGradient id="edge" x1="34" y1="30" x2="94" y2="108" gradientUnits="userSpaceOnUse">
      <stop offset="0" stop-color="#fff5c7" />
      <stop offset="0.55" stop-color="#c8fff8" />
      <stop offset="1" stop-color="#ffad96" />
    </linearGradient>
    <filter id="shadow" x="-20%" y="-20%" width="140%" height="140%">
      <feDropShadow dx="0" dy="7" stdDeviation="6" flood-color="#050d18" flood-opacity="0.38" />
    </filter>
  </defs>

  <rect width="128" height="128" rx="30" fill="#102033" />
  <path d="M18 96C29 113 45 121 64 121C83 121 99 113 110 96" fill="none" stroke="#74d2c9" stroke-width="2" opacity="0.28" />
  <path d="M22 28C32 15 46 8 64 8C82 8 96 15 106 28" fill="none" stroke="#f8d66d" stroke-width="2" opacity="0.22" />

  <g filter="url(#shadow)">
    <path d="M64 31L33 101" fill="none" stroke="#07131f" stroke-width="14" stroke-linecap="round" />
    <path d="M64 31L95 101" fill="none" stroke="#07131f" stroke-width="14" stroke-linecap="round" />
    <path d="M64 31L33 101" fill="none" stroke="url(#metal)" stroke-width="9" stroke-linecap="round" />
    <path d="M64 31L95 101" fill="none" stroke="url(#metal)" stroke-width="9" stroke-linecap="round" />

    <path d="M58 42L44 76" fill="none" stroke="url(#edge)" stroke-width="2.3" stroke-linecap="round" opacity="0.82" />
    <path d="M70 42L84 76" fill="none" stroke="url(#edge)" stroke-width="2.3" stroke-linecap="round" opacity="0.82" />

    <path d="M42 79H86" fill="none" stroke="#74d2c9" stroke-width="5" stroke-linecap="round" opacity="0.9" />
    <path d="M48 79H80" fill="none" stroke="#fff5c7" stroke-width="1.5" stroke-linecap="round" opacity="0.75" />

    <path d="M27 109L33 96L42 106Z" fill="#ef6d50" stroke="#ffd66e" stroke-width="2" stroke-linejoin="round" />
    <path d="M101 109L95 96L86 106Z" fill="#ef6d50" stroke="#ffd66e" stroke-width="2" stroke-linejoin="round" />

    <circle cx="64" cy="31" r="14" fill="#07131f" />
    <circle cx="64" cy="31" r="10" fill="url(#metal)" />
    <circle cx="64" cy="31" r="4.2" fill="#102033" />
    <circle cx="64" cy="31" r="2" fill="#f8d66d" opacity="0.95" />
  </g>

  <path d="M64 49V108" fill="none" stroke="#ffffff" stroke-width="1.4" stroke-linecap="round" opacity="0.16" />
</svg>
